#!OML:ASF G:\JayActor3\Patient Classification 1\Patient 1\Session 6\male.ASF
:FULLY-SPECIFIED
:DEGREES
4862
root -0.651132 15.0753 -2.71493 1142.54 -88.3869 -1138.82
lowerback 31.595 1.60591 3.25655
upperback 15.8148 0.960593 -1.08789
thorax 0.886755 0.00421418 -3.36221
lowerneck 8.63348 12.8475 9.53489
upperneck -31.053 14.3636 -21.7215
head -8.37937 8.10113 -10.3755
rclavicle 2.93207e-015 -2.71838e-014
rhumerus -20.383 -5.7341 -83.5409
rradius 61.9936
rwrist 0.734807
rhand -24.2168 -5.95832
rfingers 7.12502
rthumb 2.26796 -35.926
lclavicle 2.93207e-015 -2.71838e-014
lhumerus -16.9483 -15.8394 74.2295
lradius 73.0159
lwrist 13.7623
lhand -13.66 13.2724
lfingers 7.12502
lthumb 12.4569 42.8811
rfemur -45.2411 -10.4505 22.6597
rtibia 64.6298
rfoot -25.6908 -16.9829
rtoes -7.119
lfemur -43.3407 10.5944 -19.8982
ltibia 56.6067
lfoot -17.3588 3.56284
ltoes -0.16871
4863
root -0.646752 15.0727 -2.71551 1142.35 -88.4219 -1138.65
lowerback 31.6579 1.59817 3.27778
upperback 15.8406 0.950426 -1.09543
thorax 0.890841 -0.00104601 -3.38085
lowerneck 8.68624 12.8409 9.59666
upperneck -31.0365 14.373 -21.7331
head -8.37451 8.10328 -10.392
rclavicle -1.44119e-014 1.93318e-014
rhumerus -20.3262 -5.72823 -83.5446
rradius 62.2209
rwrist 0.611396
rhand -24.2563 -5.96981
rfingers 7.12502
rthumb 2.22979 -35.9379
lclavicle -1.44119e-014 1.93318e-014
lhumerus -16.8357 -15.8911 74.1487
lradius 73.1229
lwrist 13.8101
lhand -13.7424 13.257
lfingers 7.12502
lthumb 12.3774 42.8706
rfemur -45.2595 -10.3953 22.6212
rtibia 64.6605
rfoot -25.6751 -17.0163
rtoes -6.99168
lfemur -43.3483 10.6214 -19.9368
ltibia 56.6239
lfoot -17.3555 3.55977
ltoes -0.176463
4864
root -0.641971 15.0702 -2.71643 1142.29 -88.4581 -1138.61
lowerback 31.7248 1.59002 3.30221
upperback 15.8677 0.940341 -1.09976
thorax 0.894905 -0.00636696 -3.39784
lowerneck 8.72976 12.8359 9.6488
upperneck -31.0071 14.3829 -21.7458
head -8.36428 8.1069 -10.4049
rclavicle -1.0635e-014 2.38542e-015
rhumerus -20.2706 -5.70533 -83.5465
rradius 62.4489
rwrist 0.475592
rhand -24.3016 -5.97471
rfingers 7.12502
rthumb 2.18613 -35.9433
lclavicle -1.0635e-014 2.38542e-015
lhumerus -16.7284 -15.9374 74.0792
lradius 73.2175
lwrist 13.8637
lhand -13.812 13.2246
lfingers 7.12502
lthumb 12.3104 42.8422
rfemur -45.2864 -10.3361 22.5862
rtibia 64.6903
rfoot -25.6586 -17.0523
rtoes -6.87657
lfemur -43.3629 10.654 -19.9741
ltibia 56.6389
lfoot -17.349 3.55632
ltoes -0.190718
4865
root -0.636895 15.0677 -2.71767 1142.33 -88.4956 -1138.66
lowerback 31.7951 1.58146 3.33227
upperback 15.8944 0.931304 -1.10156
thorax 0.897335 -0.0109989 -3.4156
lowerneck 8.76769 12.8313 9.69057
upperneck -30.9667 14.3923 -21.758
head -8.35046 8.11144 -10.4142
rclavicle 4.02539e-015 -3.55328e-015
rhumerus -20.2209 -5.67162 -83.5462
rradius 62.6753
rwrist 0.339894
rhand -24.3495 -5.97482
rfingers 7.12502
rthumb 2.13986 -35.9438
lclavicle 4.02539e-015 -3.55328e-015
lhumerus -16.6288 -15.9839 74.0224
lradius 73.2989
lwrist 13.9175
lhand -13.8744 13.1771
lfingers 7.12502
lthumb 12.2502 42.7983
rfemur -45.3214 -10.2766 22.5543
rtibia 64.7173
rfoot -25.6364 -17.0926
rtoes -6.77769
lfemur -43.3846 10.6907 -20.0113
ltibia 56.6519
lfoot -17.3409 3.55207
ltoes -0.212952
4866
root -0.631634 15.0655 -2.71926 1142.53 -88.534 -1138.85
lowerback 31.8642 1.5722 3.36362
upperback 15.921 0.92185 -1.09943
thorax 0.900185 -0.0159596 -3.42957
lowerneck 8.80271 12.8298 9.71838
upperneck -30.9189 14.4038 -21.7697
head -8.33465 8.11863 -10.4201
rclavicle -4.47266e-016 -2.09469e-014
rhumerus -20.1769 -5.6243 -83.5438
rradius 62.9011
rwrist 0.218749
rhand -24.3897 -5.98059
rfingers 7.12502
rthumb 2.101 -35.95
lclavicle -4.47266e-016 -2.09469e-014
lhumerus -16.5419 -16.0202 73.9814
lradius 73.367
lwrist 13.966
lhand -13.9266 13.1233
lfingers 7.12502
lthumb 12.1999 42.7476
rfemur -45.3645 -10.2163 22.5271
rtibia 64.7403
rfoot -25.6115 -17.1346
rtoes -6.68473
lfemur -43.4139 10.7314 -20.0472
ltibia 56.6614
lfoot -17.3314 3.54668
ltoes -0.228627
4867
root -0.626329 15.0637 -2.72103 1142.79 -88.5738 -1139.1
lowerback 31.9327 1.55918 3.39622
upperback 15.9471 0.908167 -1.09588
thorax 0.90244 -0.0230255 -3.44141
lowerneck 8.84108 12.8316 9.72925
upperneck -30.8689 14.4191 -21.7741
head -8.32065 8.1287 -10.4211
rclavicle -1.01629e-014 2.42517e-014
rhumerus -20.1393 -5.55843 -83.5425
rradius 63.1204
rwrist 0.119915
rhand -24.4282 -5.98881
rfingers 7.12502
rthumb 2.06379 -35.9586
lclavicle -1.01629e-014 2.42517e-014
lhumerus -16.4741 -16.0425 73.9549
lradius 73.422
lwrist 14.0064
lhand -13.9769 13.0684
lfingers 7.12502
lthumb 12.1514 42.6955
rfemur -45.4104 -10.1601 22.5017
rtibia 64.7584
rfoot -25.5853 -17.173
rtoes -6.59082
lfemur -43.4455 10.7741 -20.0838
ltibia 56.6656
lfoot -17.3214 3.53951
ltoes -0.240613
4868
root -0.621042 15.0624 -2.72285 1142.9 -88.6206 -1139.21
lowerback 31.999 1.54279 3.42457
upperback 15.9747 0.888912 -1.09286
thorax 0.906768 -0.0330902 -3.44972
lowerneck 8.87971 12.8361 9.72739
upperneck -30.8193 14.4368 -21.7744
head -8.30818 8.14082 -10.4189
rclavicle 7.85199e-015 -2.57178e-014
rhumerus -20.1049 -5.47828 -83.5428
rradius 63.3297
rwrist 0.0515158
rhand -24.4595 -5.99845
rfingers 7.12502
rthumb 2.03361 -35.9685
lclavicle 7.85199e-015 -2.57178e-014
lhumerus -16.4244 -16.0536 73.9431
lradius 73.4693
lwrist 14.0351
lhand -14.0246 13.0469
lfingers 7.12502
lthumb 12.1053 42.6767
rfemur -45.4582 -10.114 22.4695
rtibia 64.7728
rfoot -25.5578 -17.2029
rtoes -6.49619
lfemur -43.4747 10.8141 -20.1296
ltibia 56.6615
lfoot -17.311 3.53374
ltoes -0.246746
4869
root -0.615722 15.0616 -2.72476 1143.05 -88.6693 -1139.34
lowerback 32.4498 1.50418 3.46411
upperback 15.8274 0.882491 -1.21825
thorax 0.692271 -0.0416955 -3.35819
lowerneck 8.92481 12.8408 9.72203
upperneck -30.7736 14.4555 -21.7697
head -8.29902 8.15329 -10.4157
rclavicle 3.07122e-014 2.68608e-014
rhumerus -20.0782 -5.39058 -83.549
rradius 63.5247
rwrist 0.0127264
rhand -24.4902 -5.99744
rfingers 7.12502
rthumb 2.00392 -35.9678
lclavicle 3.07122e-014 2.68608e-014
lhumerus -16.3929 -16.0615 73.941
lradius 73.5049
lwrist 14.049
lhand -14.0707 13.051
lfingers 7.12502
lthumb 12.0609 42.6835
rfemur -45.5126 -10.073 22.4385
rtibia 64.7836
rfoot -25.5329 -17.2244
rtoes -6.4012
lfemur -43.5089 10.8532 -20.1781
ltibia 56.6497
lfoot -17.2972 3.5297
ltoes -0.250923
4870
root -0.610292 15.0611 -2.72663 1143.09 -88.7264 -1139.35
lowerback 32.5118 1.47934 3.48486
upperback 15.8522 0.851393 -1.21709
thorax 0.69496 -0.0579679 -3.35949
lowerneck 8.96632 12.8502 9.7004
upperneck -30.7309 14.4775 -21.7634
head -8.29151 8.16856 -10.4094
rclavicle -9.46712e-015 1.85739e-014
rhumerus -20.0468 -5.27941 -83.5545
rradius 63.7014
rwrist -0.00224963
rhand -24.5214 -5.98954
rfingers 7.12502
rthumb 1.97376 -35.9602
lclavicle -9.46712e-015 1.85739e-014
lhumerus -16.378 -16.0477 73.9554
lradius 73.5284
lwrist 14.0463
lhand -14.1043 13.0858
lfingers 7.12502
lthumb 12.0286 42.7201
rfemur -45.5768 -10.0396 22.4006
rtibia 64.7931
rfoot -25.5064 -17.2371
rtoes -6.31485
lfemur -43.5472 10.8909 -20.2377
ltibia 56.6296
lfoot -17.2801 3.52872
ltoes -0.25841
4871
root -0.604891 15.0611 -2.72865 1143.11 -88.7905 -1139.33
lowerback 32.5699 1.45307 3.49738
upperback 15.878 0.816075 -1.2154
thorax 0.699646 -0.0768383 -3.35465
lowerneck 9.00211 12.8616 9.67044
upperneck -30.6914 14.4999 -21.7561
head -8.28486 8.18445 -10.4015
rclavicle 2.04872e-014 -2.96127e-014
rhumerus -20.0125 -5.15506 -83.562
rradius 63.8592
rwrist -0.00128665
rhand -24.5566 -5.9752
rfingers 7.12502
rthumb 1.93979 -35.9461
lclavicle 2.04872e-014 -2.96127e-014
lhumerus -16.3756 -16.025 73.9825
lradius 73.5391
lwrist 14.0315
lhand -14.1312 13.1356
lfingers 7.12502
lthumb 12.0026 42.7715
rfemur -45.6468 -10.0091 22.3582
rtibia 64.7993
rfoot -25.4832 -17.2432
rtoes -6.23417
lfemur -43.5881 10.9289 -20.3048
ltibia 56.6022
lfoot -17.2614 3.53208
ltoes -0.282953
4872
root -0.599396 15.0615 -2.73084 1143.29 -88.8586 -1139.48
lowerback 32.6204 1.4265 3.49989
upperback 15.9052 0.777492 -1.20941
thorax 0.708136 -0.09812 -3.33911
lowerneck 9.03091 12.8763 9.63106
upperneck -30.6527 14.5236 -21.7513
head -8.2776 8.20188 -10.3922
rclavicle -2.37486e-014 -1.25017e-014
rhumerus -19.9763 -5.01204 -83.5668
rradius 64.001
rwrist 0.0049752
rhand -24.589 -5.96327
rfingers 7.12502
rthumb 1.90852 -35.9345
lclavicle -2.37486e-014 -1.25017e-014
lhumerus -16.3856 -15.9891 74.0257
lradius 73.5323
lwrist 14.0062
lhand -14.1475 13.1834
lfingers 7.12502
lthumb 11.9869 42.8202
rfemur -45.7246 -9.97722 22.3169
rtibia 64.8011
rfoot -25.4606 -17.2493
rtoes -6.16836
lfemur -43.6344 10.972 -20.3746
ltibia 56.5685
lfoot -17.2404 3.53497
ltoes -0.318262
4873
root -0.594048 15.0622 -2.73329 1143.72 -88.9283 -1139.86
lowerback 32.663 1.40162 3.497
upperback 15.9343 0.739356 -1.19849
thorax 0.721411 -0.119699 -3.31568
lowerneck 9.0553 12.8906 9.59073
upperneck -30.6172 14.5437 -21.7542
head -8.27043 8.21831 -10.3855
rclavicle -2.48326e-014 -5.94801e-015
rhumerus -19.9406 -4.86232 -83.5678
rradius 64.1262
rwrist 0.0118292
rhand -24.616 -5.95068
rfingers 7.12502
rthumb 1.88241 -35.9221
lclavicle -2.48326e-014 -5.94801e-015
lhumerus -16.4042 -15.9511 74.0845
lradius 73.5062
lwrist 13.9754
lhand -14.1638 13.2091
lfingers 7.12502
lthumb 11.9712 42.8468
rfemur -45.8051 -9.94426 22.279
rtibia 64.7965
rfoot -25.4387 -17.2564
rtoes -6.11647
lfemur -43.6833 11.0213 -20.4438
ltibia 56.5291
lfoot -17.2196 3.53638
ltoes -0.371617
